PathFileType	4	(X/Y/Z)	C:/Users/opensim2020/Desktop/walking_exp_matlab/subject02_walking09_straight_02.trc	
DataRate	CameraRate	NumFrames	NumMarkers	Units	OrigDataRate	OrigDataStartFrame	OrigNumFrames	
100.00	100.00	9	42	mm	100.00	1486	436	
Frame#	Time	LFHD			RFHD			LBHD			RBHD			C7			T10			CLAV			STRN			RBAK			LSHO			LUPA			LELB			LFRM			LWRA			LWRB			LFIN			RSHO			RUPA			RELB			RFRM			RWRA			RWRB			RFIN			LASI			RASI			LPSI			RPSI			LTHI			LKNE			LTIB			LANK			LHEE			LTOE			RTHI			RKNE			RTIB			RANK			RHEE			RTOE			*39			*40			*41			
		X1	Y1	Z1	X2	Y2	Z2	X3	Y3	Z3	X4	Y4	Z4	X5	Y5	Z5	X6	Y6	Z6	X7	Y7	Z7	X8	Y8	Z8	X9	Y9	Z9	X10	Y10	Z10	X11	Y11	Z11	X12	Y12	Z12	X13	Y13	Z13	X14	Y14	Z14	X15	Y15	Z15	X16	Y16	Z16	X17	Y17	Z17	X18	Y18	Z18	X19	Y19	Z19	X20	Y20	Z20	X21	Y21	Z21	X22	Y22	Z22	X23	Y23	Z23	X24	Y24	Z24	X25	Y25	Z25	X26	Y26	Z26	X27	Y27	Z27	X28	Y28	Z28	X29	Y29	Z29	X30	Y30	Z30	X31	Y31	Z31	X32	Y32	Z32	X33	Y33	Z33	X34	Y34	Z34	X35	Y35	Z35	X36	Y36	Z36	X37	Y37	Z37	X38	Y38	Z38	X39	Y39	Z39	X40	Y40	Z40	X41	Y41	Z41	X42	Y42	Z42	

273	2.720	1464.87256	80.80831	1731.57007	1327.70117	105.32312	1694.92834	1505.80127	203.73299	1654.89502	1372.00891	240.34184	1616.82129	1451.90198	266.84900	1510.41125	1449.61096	324.96036	1234.50134	1456.79761	129.26149	1438.43481	1452.02966	79.57037	1266.55505	1395.45923	331.71814	1335.53259	1628.85376	181.86177	1489.03149	1715.10107	172.70560	1289.39807	1732.86877	151.23972	1149.57373	1740.10608	102.73287	1025.06506	1700.78174	13.93748	925.17029	1737.14551	55.68330	911.90186	1739.10779	14.62874	860.11981	1262.05298	199.67673	1464.22058	1187.15820	252.97563	1276.66077	1172.65710	256.89682	1130.57922	1149.20166	244.86528	1012.03979	1160.12720	207.26128	880.53937	1135.49280	258.08453	882.92810	1128.23645	228.52272	816.71741	1584.41919	98.69410	962.38513	1329.36963	80.47745	968.84473	1491.35718	302.17987	1013.47363	1375.21033	301.48691	1018.23798	1635.44739	230.33810	665.98352	1614.29004	301.30563	481.99353	1608.07996	444.56732	350.06992	1583.55505	550.20117	148.29947	1528.26660	584.79028	141.52884	1598.76855	438.20871	33.25453	1253.89453	91.46007	670.25269	1299.02710	42.99261	468.60550	1293.76221	63.52588	281.05359	1331.36853	64.43522	89.48981	1388.61292	95.20926	37.52314	1314.39600	-89.86143	36.73405	1387.44238	200.44859	1782.42554	-3360.33276	2845.21851	1034.06628			 
274	2.730	1462.37585	72.49022	1732.85364	1325.16797	97.14084	1695.73560	1503.43152	195.59393	1656.46716	1369.76050	232.34618	1618.05420	1449.67883	258.94211	1511.37561	1446.72534	316.16354	1235.25342	1454.70813	121.16094	1439.87781	1449.86829	71.01470	1268.09888	1393.25098	323.19708	1336.24268	1626.93970	174.46880	1490.47327	1712.34216	167.08496	1290.36902	1728.95715	147.79247	1150.13904	1736.78833	102.57040	1024.57483	1698.91528	16.10893	922.31848	1734.55383	58.60725	910.02222	1736.77185	18.97980	856.88635	1260.18787	191.79443	1465.87842	1184.52295	242.42213	1277.75745	1170.44360	245.96935	1131.68298	1146.74719	233.44046	1013.23706	1157.83801	196.55907	881.69910	1132.86035	247.19557	884.25519	1125.57825	218.22835	817.61725	1580.78809	89.53984	963.53540	1326.50061	71.12164	970.49652	1488.98535	293.29303	1014.48645	1372.70923	292.28778	1018.88068	1633.87415	218.48062	665.46661	1614.75317	286.09506	481.88925	1607.84863	431.18539	353.44345	1583.82910	541.93884	154.84599	1527.96704	575.93921	149.66403	1598.50793	437.55093	33.81138	1251.39807	82.14484	671.30194	1297.73804	39.59442	468.10577	1292.86414	62.46999	280.49094	1331.51685	64.26284	89.49510	1388.72705	95.18655	37.54715	1314.55469	-90.10735	36.68793	1384.55627	191.97740	1783.51001	-3360.21265	2845.07983	1034.04846			 
275	2.740	1460.14807	64.51078	1734.25403	1322.84106	89.05665	1696.73169	1501.17432	187.63029	1658.05127	1367.56824	224.35760	1619.40051	1447.38916	251.00020	1512.57129	1443.91174	307.51340	1236.15527	1452.67224	113.17098	1441.40063	1447.81055	62.49623	1269.73157	1390.72510	314.51257	1337.05017	1624.51892	166.90747	1491.75537	1709.23425	161.04941	1291.26135	1725.05774	144.42766	1150.89685	1733.48474	102.65724	1024.26367	1696.82422	18.46141	919.45813	1731.99219	61.73018	908.56757	1734.83875	24.11623	854.24255	1257.98755	183.69020	1467.43250	1182.59424	233.30469	1279.08667	1168.27148	235.07088	1133.01672	1144.77039	222.63426	1014.71960	1155.65417	185.66472	883.18964	1130.32141	236.38641	885.84283	1123.10779	207.25867	818.96136	1576.89380	81.75186	964.51514	1323.74194	62.03959	971.93396	1486.38403	284.67117	1015.65656	1370.06213	283.23883	1019.81915	1632.62805	206.60713	665.33948	1614.99146	270.02670	481.29044	1607.94287	416.69162	356.43201	1583.88074	532.23700	161.22537	1527.79431	565.99353	158.03416	1597.79932	435.95911	34.42561	1249.36572	74.36153	672.59863	1296.06812	35.63556	467.74240	1291.79492	61.03763	280.48010	1331.46704	64.06768	89.49250	1388.74670	95.20614	37.54286	1314.56018	-90.18551	36.59532	1382.09460	183.82422	1784.95740	-3360.42261	2845.22241	1033.97363			 
276	2.750	1457.94104	56.56087	1735.59631	1320.43701	80.95885	1697.73413	1498.99780	179.79060	1659.65247	1365.44958	216.48055	1620.79895	1445.15259	243.04509	1513.78833	1441.05969	299.04254	1237.12512	1450.72449	105.22509	1442.96155	1445.81543	54.02102	1271.42346	1388.04626	305.72333	1337.84827	1622.53992	159.73317	1493.20728	1706.52734	155.27612	1292.44031	1721.25012	141.09894	1151.83508	1730.28235	102.80724	1024.26599	1694.48071	20.93595	916.64099	1729.45984	64.95142	907.45514	1732.60925	29.27501	851.72546	1256.15820	175.62883	1469.28821	1180.34583	223.30444	1280.43408	1166.14099	224.21306	1134.47937	1142.35913	211.47157	1016.47491	1153.20679	174.22841	884.61975	1127.68286	224.59608	887.38989	1120.60156	195.92143	820.51648	1573.93713	72.68504	966.14819	1321.23682	53.20634	973.25140	1483.81714	276.41132	1017.07654	1367.38428	274.33862	1021.08661	1631.29517	194.35315	664.84210	1615.19507	253.44603	480.60373	1608.05139	401.39658	359.15588	1583.97412	521.39331	167.94974	1527.11658	554.70715	165.98575	1596.83264	433.05618	35.51516	1247.76599	68.21249	673.35547	1294.85242	32.37370	467.94644	1290.62927	59.22546	280.54373	1331.29480	63.85787	89.47525	1388.61548	95.30835	37.56091	1314.48828	-90.20529	36.42839	1379.57971	175.61906	1786.16187	-3360.24341	2845.15479	1034.10400			 
277	2.760	1455.98279	48.70737	1736.94495	1318.69214	73.13739	1699.05310	1497.03394	172.05688	1661.13892	1363.46509	208.64265	1622.15430	1442.78894	235.12007	1515.00293	1438.24536	290.75681	1238.17102	1448.86218	97.27926	1444.45679	1443.71362	45.65338	1272.86462	1385.32422	297.21106	1338.90894	1620.52783	152.71115	1494.72803	1703.93176	149.48566	1293.65576	1717.53967	137.79646	1152.81775	1727.41138	103.19919	1024.59241	1692.77197	23.71836	914.58716	1726.96143	68.22544	906.51294	1730.29590	34.50365	849.54095	1254.11047	167.19099	1471.00391	1178.19812	213.88554	1281.84009	1163.88721	213.38356	1135.99768	1139.95886	199.95047	1017.93176	1151.01257	162.72537	886.43713	1125.15063	212.89258	889.05383	1118.16553	184.06418	822.14221	1570.97400	64.88447	967.60992	1319.12366	44.65335	974.38788	1481.13574	268.40656	1018.55463	1364.58752	265.63834	1022.64600	1630.16284	181.74640	664.31036	1615.41602	236.40157	479.96701	1607.98706	385.25403	361.36084	1583.29089	509.13120	174.07751	1526.23071	542.59576	173.92990	1595.96985	428.45703	37.37323	1246.54077	63.37096	673.67554	1293.64453	29.01180	468.02222	1289.51062	57.12618	280.74597	1331.00574	63.61701	89.50374	1388.42432	95.43808	37.55382	1314.48267	-90.20856	36.40286	1377.43677	167.64203	1787.53894	-3357.26196	2845.85522	1034.22632			 
278	2.770	1453.83630	40.97991	1738.02356	1316.87231	65.29606	1700.29651	1495.09607	164.36810	1662.43237	1361.45190	200.82430	1623.41345	1440.53503	227.29851	1516.14612	1435.60327	282.93335	1239.41577	1447.20288	89.45248	1445.86694	1442.10376	37.61100	1274.48608	1382.71960	289.04639	1340.05066	1618.44238	145.71803	1495.95996	1701.66968	143.94792	1294.99390	1713.95349	134.45323	1153.76611	1724.43005	103.37851	1024.90491	1690.48035	26.24442	912.14984	1724.69458	71.42181	905.93439	1727.74866	39.59634	847.37347	1252.07520	158.54401	1472.65967	1175.39526	203.29369	1283.22375	1161.65649	202.66368	1137.52783	1137.99170	189.15527	1019.65686	1148.75391	150.78738	888.19037	1122.70471	200.96890	890.65381	1115.68933	171.98483	823.80109	1568.65283	57.46050	969.16797	1317.48743	36.85046	975.16547	1478.43079	260.61554	1020.02808	1361.83655	257.08026	1024.29163	1629.37292	168.96750	663.93762	1615.66931	219.14920	479.49304	1608.23889	368.72800	363.69901	1582.12012	496.64157	180.35522	1524.46594	529.57275	180.88669	1596.48376	421.53094	41.00498	1245.41846	58.92196	673.65387	1292.23621	25.52413	467.88513	1288.30664	54.89991	280.80270	1330.65466	63.43211	89.57487	1388.27026	95.62022	37.54270	1314.36365	-90.04037	36.33839	1375.57141	159.97565	1788.89648	-3360.33252	2845.07300	1034.21130			 
279	2.780	1452.58838	33.51941	1739.67737	1315.25867	57.55491	1701.70728	1493.35339	156.80241	1663.65112	1359.66223	192.96713	1624.60498	1438.32617	219.63377	1517.25928	1432.90552	275.01450	1240.62817	1445.60657	81.71940	1447.19666	1440.49487	29.71597	1275.86658	1379.78088	280.51740	1341.19153	1616.38013	138.77403	1497.25500	1699.48621	138.42709	1296.17188	1710.57776	131.14751	1154.70056	1721.62512	103.40828	1025.26892	1688.66357	29.04053	910.29968	1722.21118	74.29857	905.19397	1725.54419	44.99729	845.68134	1250.28503	149.82500	1474.34387	1173.02502	193.23573	1284.82947	1159.36743	192.02094	1139.03516	1136.16577	177.39978	1021.17621	1146.48608	138.64018	889.94928	1120.38293	188.98329	892.15186	1113.27954	159.30171	825.50446	1566.73364	50.28927	970.68622	1315.86084	28.71499	975.91992	1475.68005	253.04318	1021.36035	1359.00647	248.73427	1025.88208	1628.51917	155.83069	663.77185	1615.72473	201.59326	479.07632	1608.09937	352.09668	365.45627	1579.94299	483.94305	186.36121	1521.72388	515.87982	187.18207	1598.60193	411.41299	46.15150	1244.29700	54.28414	673.71320	1291.54761	22.77814	468.23111	1287.19922	52.45204	280.75693	1330.26318	63.15894	89.57664	1388.07336	95.82424	37.55684	1314.51953	-90.09044	36.44229	1373.82654	152.42165	1790.11853	-3360.42188	2845.19312	1034.05701			 
280	2.790	1451.22644	26.15075	1741.12317	1313.80151	49.79909	1703.23926	1491.71509	149.29956	1664.80750	1357.91064	185.13083	1625.73792	1436.10571	211.99667	1518.39099	1430.14941	267.14392	1241.80188	1444.12000	73.93340	1448.52759	1439.05542	21.96286	1277.12451	1377.05396	272.35553	1342.45508	1614.84448	132.25107	1498.50439	1697.24194	133.03793	1297.05420	1707.46021	127.74102	1155.56042	1718.93286	103.27853	1025.69836	1686.71619	31.57889	908.46539	1720.25720	77.27504	905.08527	1722.93726	49.91453	843.94775	1248.56592	141.07950	1475.92017	1171.21753	184.20534	1286.23047	1157.04248	181.39720	1140.41675	1133.54260	165.18208	1022.77802	1144.24451	126.21474	891.70490	1118.13879	176.39836	893.68756	1111.08020	146.26355	827.38757	1565.21777	43.50750	972.18982	1314.42993	20.71938	976.51672	1472.96448	245.56519	1022.51068	1356.31836	240.57590	1027.37097	1627.70679	142.45134	664.08112	1615.90454	184.16679	479.19284	1607.76929	335.52228	367.79858	1576.96021	470.07159	191.50974	1518.39246	501.01852	192.13231	1600.51501	399.22385	51.42984	1243.09424	49.78725	673.89331	1290.53662	20.25601	467.78271	1286.32849	49.96763	280.47757	1329.90784	62.92773	89.50745	1387.86670	95.95827	37.55366	1314.41321	-90.00523	36.33586	1372.31970	145.02319	1791.37378	-3360.19336	2845.08423	1034.07031			 
281	2.800	1449.72961	18.64478	1742.47375	1312.49097	42.12815	1704.72852	1490.21606	141.83238	1665.90491	1356.32556	177.35841	1626.87463	1434.11475	204.34990	1519.60535	1427.53198	259.44196	1243.11975	1442.77710	66.33987	1449.77710	1437.81799	14.38360	1278.30627	1373.80005	263.79578	1343.70459	1613.19006	125.53355	1499.44678	1695.19128	127.78493	1297.89539	1704.49316	124.32979	1156.29077	1716.42041	102.93260	1026.13806	1684.52234	33.87354	906.52606	1718.26050	79.84740	904.87384	1720.78674	54.87506	842.65594	1247.04932	132.26094	1477.47559	1168.87695	174.33691	1287.70496	1154.67627	170.73602	1141.72449	1131.21765	153.76370	1023.98291	1142.10608	113.53809	893.54260	1115.91956	163.69757	895.01801	1108.59680	133.06689	828.88184	1564.08569	36.93119	973.58514	1313.09473	12.93879	976.86505	1470.20935	238.25702	1023.58710	1353.65369	232.74658	1028.73010	1627.29895	129.20557	664.94666	1615.97449	166.87862	479.80109	1606.33276	319.05804	370.54785	1573.96594	455.29077	196.07056	1514.47644	485.06622	195.11380	1602.43604	384.68695	56.29474	1241.81262	44.99099	674.31293	1289.49084	17.50133	467.47311	1286.09680	47.55777	280.21295	1329.69165	62.70659	89.45900	1387.83459	96.03639	37.56413	1314.39722	-89.97294	36.33114	1370.89697	137.66075	1792.59302	-3360.33789	2845.10181	1033.89099			 
